<!DOCTYPE svg PUBLIC "-//W3C//DTD SVG 20010904//EN" "http://www.w3.org/TR/2001/REC-SVG-20010904/DTD/svg10.dtd">
<svg version="1.0" xmlns="http://www.w3.org/2000/svg" width="300px" height="96px" viewBox="0 0 3000 960" preserveAspectRatio="xMidYMid meet">
<g id="layer101" fill="#0877a0" stroke="none">
 <path d="M1083 925 c-22 -19 -50 -55 -62 -80 -20 -43 -21 -59 -21 -362 0 -293 2 -321 20 -358 24 -51 48 -78 91 -104 33 -20 47 -21 389 -21 342 0 356 1 389 21 43 26 67 53 91 104 18 37 20 65 20 358 0 301 -1 319 -21 362 -11 24 -39 60 -60 80 l-39 35 -378 0 -378 0 -41 -35z"/>
 </g>
<g id="layer102" fill="#1191bc" stroke="none">
 <path d="M1083 925 c-22 -19 -50 -55 -62 -80 -20 -43 -21 -59 -21 -362 0 -293 2 -321 20 -358 24 -51 48 -78 91 -104 33 -20 47 -21 389 -21 342 0 356 1 389 21 43 26 67 53 91 104 18 37 20 65 20 349 0 209 -4 321 -12 348 -6 22 -32 62 -57 88 l-46 49 -381 1 -380 0 -41 -35z m404 -52 c-4 -3 -23 -6 -43 -5 -20 1 -42 -1 -47 -5 -6 -4 -24 -8 -39 -10 -16 -2 -43 -10 -61 -18 -32 -15 -32 -15 -8 2 14 10 45 23 70 29 51 13 138 18 128 7z m155 -9 c67 -17 97 -33 146 -78 33 -30 82 -113 82 -137 0 -7 -14 15 -31 49 -41 83 -122 147 -197 155 -15 2 -33 6 -39 10 -5 4 -27 6 -47 5 -20 -1 -39 2 -43 5 -12 13 69 7 129 -9z m-132 -83 c0 -5 -6 -14 -14 -20 -12 -10 -13 -8 -9 8 5 21 23 30 23 12z m133 -145 c57 -28 75 -41 97 -71 14 -19 13 -19 -10 1 -14 11 -47 33 -75 49 -51 28 -125 92 -125 107 0 5 14 -7 31 -26 17 -19 54 -47 82 -60z m-350 36 c-29 -26 -58 -62 -64 -81 -10 -27 -14 -30 -21 -18 -6 11 -1 32 16 65 19 37 34 53 63 65 60 25 61 20 6 -31z m440 21 c24 -12 32 -24 28 -45 0 -5 3 -8 7 -8 15 0 33 -50 24 -67 -7 -12 -12 -8 -21 18 -6 19 -35 56 -64 82 -41 38 -47 47 -27 42 14 -4 37 -14 53 -22z m-225 -69 c34 -24 53 -69 48 -114 -5 -50 -7 -53 -91 -145 -54 -59 -85 -101 -85 -115 0 -6 -4 -8 -10 -5 -12 8 11 66 37 92 10 10 30 33 45 51 17 21 33 31 40 26 7 -4 10 -4 6 1 -4 4 1 20 12 35 62 87 37 170 -54 176 -19 1 -30 -4 -33 -15 -2 -9 -15 -21 -29 -28 -23 -11 -23 -9 8 22 36 38 70 44 106 19z m380 -79 c0 -38 0 -39 -8 -11 -5 16 -7 33 -4 37 3 5 0 17 -5 27 -6 11 -7 23 -3 26 10 10 20 -31 20 -79z m-284 41 c10 4 30 -4 51 -20 37 -29 91 -94 83 -101 -2 -3 -18 15 -36 40 -27 39 -87 83 -98 72 -2 -2 5 -22 16 -45 11 -22 20 -51 20 -63 0 -34 -29 -87 -79 -142 -66 -74 -104 -137 -106 -174 -1 -37 -14 -45 -30 -19 -14 23 36 116 98 181 89 94 117 195 67 245 -3 3 -14 16 -25 30 l-20 25 21 -18 c12 -10 28 -15 38 -11z m-413 -47 c-10 -23 -10 -22 -7 6 6 39 7 42 12 29 3 -6 0 -22 -5 -35z m626 3 c2 -23 1 -24 -7 -7 -11 24 -13 51 -3 41 4 -4 8 -19 10 -34z m-357 -33 c0 -41 -3 -50 -15 -46 -16 7 -93 -74 -118 -125 -9 -18 -17 -26 -17 -17 0 26 109 159 130 159 6 0 10 13 10 29 0 28 -1 29 -35 21 -29 -7 -34 -6 -25 5 6 7 19 11 29 8 10 -3 22 0 25 6 13 20 16 11 16 -40z m-99 -38 c-53 -66 -76 -142 -51 -167 7 -7 7 -20 2 -34 -11 -31 -22 -13 -25 42 -3 48 24 114 68 166 38 46 43 40 6 -7z m496 -24 c15 -15 15 -17 1 -12 -16 6 -38 47 -37 68 0 7 5 1 10 -13 6 -13 17 -33 26 -43z m-153 -16 c9 -27 16 -57 16 -66 0 -29 -52 -123 -83 -152 l-31 -28 28 34 c39 48 66 106 66 138 -1 27 -1 27 -21 -10 -11 -22 -45 -64 -75 -95 -30 -31 -54 -64 -54 -74 0 -15 6 -17 48 -11 46 6 56 -5 10 -12 -12 -2 -33 -7 -44 -10 -20 -6 -22 -2 -26 42 -5 53 -2 65 13 43 10 -15 14 -12 87 75 49 59 58 100 36 167 -4 12 -2 18 4 14 5 -3 17 -28 26 -55z m66 -77 c0 -59 -9 -96 -31 -124 -18 -23 -18 -22 2 25 20 49 22 124 5 180 -4 11 0 7 8 -10 8 -16 15 -49 16 -71z"/>
 <path d="M1263 674 l-28 -26 35 23 c46 29 45 29 32 29 -6 0 -24 -12 -39 -26z"/>
 <path d="M1691 697 c2 -2 20 -14 39 -26 l35 -23 -28 26 c-15 14 -33 26 -39 26 -6 0 -9 -1 -7 -3z"/>
 </g>
<g id="layer103" fill="#fafcfd" stroke="none">
 <path d="M1350 844 c-146 -46 -211 -139 -227 -321 -5 -62 -4 -73 10 -73 11 0 24 25 42 82 15 45 33 94 40 109 22 42 73 79 108 79 l32 -1 -35 -30 c-19 -16 -47 -40 -62 -53 -18 -15 -28 -34 -28 -50 0 -31 11 -33 35 -6 10 11 42 33 71 50 77 43 120 84 141 135 10 25 20 45 23 45 4 0 12 -16 19 -35 19 -53 56 -91 131 -136 37 -22 76 -49 85 -59 24 -27 35 -25 35 6 0 16 -10 35 -27 50 -16 13 -44 37 -63 53 l-35 30 32 1 c35 0 86 -37 108 -79 7 -15 25 -64 40 -109 18 -57 31 -82 42 -82 14 0 15 11 10 73 -14 160 -60 241 -168 295 -77 39 -184 55 -201 31 -7 -11 -11 -11 -15 -1 -6 16 -86 14 -143 -4z"/>
 <path d="M1432 608 c3 -7 -16 -22 -42 -34 -93 -43 -160 -162 -145 -257 11 -64 54 -135 102 -168 48 -33 49 -33 28 7 -34 66 -13 134 72 229 97 109 115 164 68 210 -26 27 -90 36 -83 13z m28 -98 c0 -37 -4 -50 -13 -48 -16 3 -89 -78 -114 -125 -9 -18 -16 -52 -16 -77 l0 -45 -18 40 c-10 22 -18 54 -19 70 0 38 31 106 70 155 23 29 27 41 18 47 -8 5 5 12 37 19 28 7 51 13 53 13 1 1 2 -22 2 -49z"/>
 <path d="M1558 542 c5 -62 -9 -89 -87 -175 -72 -79 -91 -114 -91 -163 0 -28 32 -104 44 -104 1 0 2 22 2 48 0 53 11 73 101 179 66 79 83 112 83 162 0 30 -7 49 -27 71 l-28 31 3 -49z"/>
 <path d="M1626 533 c27 -78 7 -137 -79 -231 -96 -104 -111 -160 -56 -207 34 -28 76 -31 71 -4 -1 11 7 18 26 22 38 8 118 80 145 131 46 88 16 221 -68 294 -47 42 -56 40 -39 -5z m84 -113 c19 -67 5 -120 -52 -191 -29 -37 -37 -53 -28 -59 14 -8 3 -13 -57 -25 -32 -6 -33 -6 -33 28 0 20 -3 43 -7 52 -5 14 -2 16 15 11 17 -6 30 5 71 53 57 69 74 116 60 164 -12 42 -11 46 6 22 9 -10 20 -35 25 -55z"/>
 </g>

</svg>